<?xml version="1.0" encoding="UTF-8"?>
<svg id="b" data-name="圖層 1" xmlns="http://www.w3.org/2000/svg" viewBox="0 0 232.01 54.92">
  <defs>
    <style>
      .c {
        fill: #ed98a4;
      }

      .d {
        fill: #eeb967;
      }

      .e {
        fill: #fff;
      }

      .f {
        fill: #ca5fd2;
      }

      .g {
        fill: #53aef0;
      }
    </style>
  </defs>
  <g>
    <path class="e" d="M46.21,17.56c0,1.05-.14,1.98-.42,2.8s-.69,1.5-1.23,2.06c-.54,.56-1.18,.98-1.94,1.27s-1.61,.43-2.55,.43c-.89,0-1.7-.14-2.44-.43-.74-.29-1.38-.71-1.93-1.27-.54-.56-.96-1.25-1.26-2.06s-.45-1.74-.45-2.8c0-1.4,.25-2.58,.74-3.55s1.2-1.71,2.12-2.21c.92-.5,2.01-.75,3.28-.75,1.18,0,2.23,.25,3.14,.75,.91,.5,1.63,1.24,2.15,2.21,.52,.97,.78,2.15,.78,3.55Zm-8.71,0c0,.83,.09,1.52,.27,2.09,.18,.56,.46,.99,.85,1.27,.38,.29,.88,.43,1.5,.43s1.1-.14,1.48-.43c.38-.29,.66-.71,.84-1.27,.18-.56,.26-1.26,.26-2.09s-.09-1.53-.26-2.08c-.18-.55-.46-.97-.84-1.25-.38-.28-.88-.42-1.5-.42-.91,0-1.57,.31-1.98,.94-.41,.62-.62,1.56-.62,2.81Z"/>
    <path class="e" d="M52.05,23.88l-4.8-12.61h3.6l2.44,7.18c.13,.42,.24,.87,.32,1.33,.08,.47,.13,.88,.16,1.25h.09c.02-.4,.08-.82,.16-1.27,.09-.45,.2-.89,.34-1.31l2.42-7.18h3.6l-4.8,12.61h-3.53Z"/>
    <path class="e" d="M67.39,11.04c1.16,0,2.17,.22,3.01,.67s1.49,1.09,1.95,1.94c.46,.85,.69,1.89,.69,3.11v1.67h-8.13c.04,.97,.33,1.73,.87,2.28,.54,.55,1.3,.83,2.27,.83,.8,0,1.54-.08,2.21-.25,.67-.17,1.36-.41,2.06-.74v2.66c-.62,.31-1.28,.53-1.96,.68-.68,.14-1.5,.21-2.47,.21-1.26,0-2.38-.23-3.35-.7s-1.74-1.18-2.29-2.13c-.55-.96-.83-2.16-.83-3.61s.25-2.7,.75-3.68c.5-.98,1.2-1.72,2.09-2.21,.89-.49,1.93-.74,3.12-.74Zm.02,2.45c-.67,0-1.22,.21-1.66,.64s-.69,1.1-.76,2.02h4.83c0-.51-.1-.97-.28-1.36-.18-.4-.44-.71-.79-.95s-.79-.35-1.34-.35Z"/>
    <path class="e" d="M79.27,23.88h-3.44V6.34h3.44V23.88Z"/>
    <path class="e" d="M84.6,6.34c.51,0,.95,.12,1.32,.36,.37,.24,.55,.68,.55,1.33s-.18,1.08-.55,1.32c-.37,.24-.81,.37-1.32,.37s-.96-.12-1.32-.37c-.37-.24-.55-.69-.55-1.32s.18-1.09,.55-1.33c.36-.24,.81-.36,1.32-.36Zm1.71,4.94v12.61h-3.44V11.28h3.44Z"/>
    <path class="e" d="M92.92,23.88l-4.8-12.61h3.6l2.44,7.18c.13,.42,.24,.87,.32,1.33,.08,.47,.13,.88,.16,1.25h.09c.02-.4,.08-.82,.16-1.27,.09-.45,.2-.89,.34-1.31l2.42-7.18h3.6l-4.8,12.61h-3.53Z"/>
    <path class="e" d="M108.26,11.04c1.17,0,2.17,.22,3.01,.67s1.49,1.09,1.95,1.94,.69,1.89,.69,3.11v1.67h-8.13c.04,.97,.33,1.73,.87,2.28,.54,.55,1.3,.83,2.27,.83,.8,0,1.54-.08,2.21-.25,.67-.17,1.36-.41,2.06-.74v2.66c-.62,.31-1.28,.53-1.96,.68s-1.51,.21-2.47,.21c-1.26,0-2.38-.23-3.36-.7-.97-.47-1.74-1.18-2.29-2.13-.55-.96-.83-2.16-.83-3.61s.25-2.7,.75-3.68c.5-.98,1.2-1.72,2.09-2.21s1.94-.74,3.12-.74Zm.02,2.45c-.67,0-1.22,.21-1.66,.64s-.69,1.1-.76,2.02h4.83c0-.51-.1-.97-.28-1.36-.18-.4-.44-.71-.79-.95s-.79-.35-1.34-.35Z"/>
  </g>
  <g>
    <path class="e" d="M51.88,43.72c0,.98-.24,1.83-.71,2.55-.47,.72-1.16,1.28-2.07,1.67-.91,.39-2,.59-3.3,.59-.57,0-1.13-.04-1.67-.11-.55-.08-1.07-.19-1.57-.33s-.98-.33-1.43-.55v-3.25c.78,.35,1.59,.66,2.44,.94,.84,.28,1.68,.42,2.5,.42,.57,0,1.03-.08,1.38-.23s.6-.36,.76-.62c.16-.26,.24-.56,.24-.9,0-.41-.14-.77-.42-1.06s-.66-.57-1.14-.82c-.48-.26-1.03-.53-1.64-.82-.38-.18-.8-.4-1.25-.66-.45-.26-.88-.58-1.29-.95-.41-.38-.74-.83-1-1.37-.26-.54-.39-1.18-.39-1.93,0-.98,.22-1.83,.68-2.53s1.1-1.23,1.93-1.61,1.83-.56,2.97-.56c.86,0,1.67,.1,2.45,.3,.78,.2,1.59,.49,2.44,.86l-1.13,2.72c-.76-.31-1.44-.55-2.04-.72s-1.21-.25-1.84-.25c-.44,0-.81,.07-1.12,.21s-.54,.33-.7,.59c-.16,.25-.24,.54-.24,.87,0,.39,.11,.72,.34,.99s.58,.52,1.04,.77,1.04,.54,1.73,.87c.84,.4,1.56,.81,2.16,1.25,.6,.43,1.06,.94,1.38,1.52,.32,.58,.49,1.31,.49,2.17Z"/>
    <path class="e" d="M59.79,35.46c1.17,0,2.17,.22,3.01,.67s1.49,1.1,1.95,1.95c.46,.85,.69,1.89,.69,3.11v1.67h-8.13c.04,.97,.33,1.73,.87,2.28s1.3,.83,2.27,.83c.8,0,1.54-.08,2.21-.25,.67-.17,1.36-.41,2.06-.74v2.66c-.62,.31-1.28,.53-1.96,.68-.68,.14-1.5,.21-2.47,.21-1.26,0-2.38-.23-3.35-.7-.97-.47-1.74-1.18-2.29-2.13-.55-.95-.83-2.16-.83-3.61s.25-2.7,.75-3.68c.5-.98,1.2-1.72,2.09-2.21,.89-.49,1.93-.74,3.12-.74Zm.02,2.45c-.67,0-1.22,.21-1.66,.64-.44,.43-.69,1.1-.76,2.02h4.83c0-.51-.1-.97-.28-1.36s-.44-.71-.79-.95c-.35-.23-.79-.35-1.34-.35Z"/>
    <path class="e" d="M69.96,30.76c.51,0,.95,.12,1.32,.35,.37,.24,.55,.68,.55,1.33s-.18,1.08-.55,1.33c-.37,.24-.81,.37-1.32,.37s-.96-.12-1.33-.37-.55-.69-.55-1.33,.18-1.09,.55-1.33c.36-.24,.81-.35,1.33-.35Zm1.71,4.94v12.6h-3.44v-12.6h3.44Z"/>
    <path class="e" d="M73.48,35.7h3.77l2.38,7.09c.08,.23,.14,.45,.19,.69,.05,.23,.1,.47,.14,.72,.04,.25,.07,.51,.09,.78h.07c.04-.41,.11-.79,.19-1.14,.08-.35,.18-.7,.3-1.05l2.33-7.09h3.69l-5.33,14.22c-.32,.87-.74,1.6-1.26,2.18-.52,.58-1.11,1.02-1.79,1.31s-1.41,.44-2.21,.44c-.39,0-.73-.02-1.01-.06-.29-.04-.53-.08-.73-.13v-2.73c.16,.04,.36,.07,.6,.1s.49,.04,.76,.04c.48,0,.89-.1,1.24-.3,.35-.2,.63-.48,.87-.82,.23-.34,.42-.72,.55-1.12l.2-.62-5.01-12.51Z"/>
    <path class="e" d="M99.99,35.7v12.6h-2.64l-.46-1.61h-.18c-.27,.43-.61,.78-1.01,1.05s-.85,.47-1.34,.6-1,.19-1.52,.19c-.9,0-1.69-.16-2.36-.48-.67-.32-1.19-.82-1.56-1.49-.37-.68-.56-1.56-.56-2.64v-8.22h3.44v7.36c0,.9,.16,1.58,.49,2.04,.32,.46,.84,.69,1.54,.69s1.25-.16,1.65-.48,.68-.79,.84-1.41c.16-.62,.24-1.38,.24-2.27v-5.93h3.44Z"/>
    <path class="e" d="M115.16,35.7v12.6h-2.64l-.46-1.61h-.18c-.27,.43-.61,.78-1.01,1.05s-.85,.47-1.34,.6-1,.19-1.52,.19c-.9,0-1.69-.16-2.36-.48-.67-.32-1.19-.82-1.56-1.49-.37-.68-.56-1.56-.56-2.64v-8.22h3.44v7.36c0,.9,.16,1.58,.49,2.04,.32,.46,.84,.69,1.54,.69s1.25-.16,1.65-.48,.68-.79,.84-1.41c.16-.62,.24-1.38,.24-2.27v-5.93h3.44Z"/>
  </g>
  <g>
    <path class="e" d="M124.08,5.35h11.16c4.92,0,8.63,.81,11.11,2.42,2.48,1.61,3.72,4.36,3.72,8.23,0,1.67-.29,3.17-.88,4.5-.58,1.33-1.43,2.42-2.55,3.29s-2.49,1.46-4.12,1.8v.3c1.72,.29,3.25,.84,4.58,1.62,1.33,.79,2.37,1.89,3.13,3.3s1.13,3.21,1.13,5.4c0,2.66-.56,4.9-1.68,6.73s-2.71,3.21-4.76,4.14c-2.05,.93-4.48,1.4-7.28,1.4h-13.56V5.35Zm4.58,18.5h7.55c3.43,0,5.81-.62,7.13-1.86,1.32-1.24,1.98-3.05,1.98-5.43s-.79-4.23-2.36-5.31c-1.57-1.08-4.08-1.62-7.51-1.62h-6.79v14.22Zm0,4.22v16.14h8.2c3.5,0,5.99-.75,7.44-2.26,1.46-1.5,2.18-3.54,2.18-6.09,0-1.63-.33-3.03-.98-4.19s-1.72-2.05-3.18-2.67c-1.47-.62-3.42-.93-5.86-.93h-7.79Z"/>
    <path class="e" d="M193.94,26.85c0,3.32-.39,6.35-1.16,9.07-.77,2.72-1.92,5.06-3.44,7.02-1.52,1.96-3.4,3.47-5.65,4.53-2.25,1.06-4.85,1.59-7.82,1.59s-5.72-.53-7.99-1.59c-2.27-1.06-4.16-2.58-5.66-4.54s-2.62-4.32-3.37-7.05-1.12-5.76-1.12-9.09c0-4.41,.66-8.27,2-11.59,1.33-3.32,3.35-5.91,6.05-7.76,2.71-1.85,6.1-2.77,10.18-2.77s7.18,.91,9.85,2.74,4.69,4.4,6.07,7.71c1.38,3.31,2.06,7.22,2.06,11.73Zm-31.38,0c0,3.66,.48,6.83,1.43,9.5,.95,2.67,2.41,4.74,4.38,6.2,1.97,1.46,4.47,2.18,7.51,2.18s5.56-.73,7.51-2.18c1.95-1.46,3.39-3.52,4.33-6.2,.93-2.67,1.4-5.84,1.4-9.5,0-5.57-1.06-9.92-3.19-13.05s-5.45-4.71-9.96-4.71c-3.06,0-5.57,.72-7.55,2.15-1.98,1.44-3.45,3.48-4.41,6.12-.96,2.65-1.44,5.81-1.44,9.48Z"/>
    <path class="e" d="M214.8,48.48h-4.61V9.77h-12.4V5.35h29.36v4.42h-12.35V48.48Z"/>
  </g>
  <g>
    <path class="f" d="M21.64,38.31c3.46,.04,6.92,.08,10.38,.12,2.64,.03,3.05,.45,2.69,3.08-.25,1.85-.63,3.68-.99,5.51-.31,1.59-1.28,2.34-2.91,2.33-8.38-.02-16.75-.03-25.13,.01-1.7,0-2.47-.64-2.21-2.33,.36-2.39,.75-4.78,1.19-7.16,.16-.88,.74-1.47,1.69-1.57,5.1,.32,10.2,.17,15.3,0Z"/>
    <path class="d" d="M21.64,38.31c-5.1,.17-10.2,.31-15.3,0-1.1-.69-1.28-1.73-1.07-2.9,.38-2.11,.81-4.22,1.16-6.34,.22-1.31,.92-1.96,2.23-1.96,3.11,.03,6.21,.06,9.32,.09,.7,.64,1.13,1.4,.93,2.38-.57,2.82-.82,5.72-1.86,8.72h4.59Z"/>
    <path class="c" d="M17.98,27.2c-3.11-.03-6.21-.06-9.32-.09-1.21-.64-1.53-1.61-1.25-2.94,.42-2.02,.76-4.06,1.06-6.1,.17-1.15,.73-1.9,1.86-2.2,3.19,.05,6.37,.1,9.56,.14,.94,.56,1.26,1.38,1.07,2.45-.39,2.17-.79,4.34-1.13,6.52-.18,1.15-.74,1.89-1.86,2.21Z"/>
    <path class="g" d="M19.9,16.01c-3.19-.05-6.37-.1-9.56-.14-.9-.89-1.21-1.92-.93-3.2,.38-1.76,.61-3.55,.96-5.31,.35-1.78,1.27-2.79,3.28-2.68,2.27,.12,4.56,0,6.84,.04,2.17,.03,2.76,.71,2.43,2.81-.32,2.05-.74,4.09-1.05,6.14-.18,1.23-.72,2.07-1.97,2.35Z"/>
  </g>
</svg>