<?xml version="1.0" encoding="UTF-8"?>
<svg id="_圖層_1" data-name="圖層 1" xmlns="http://www.w3.org/2000/svg" viewBox="0 0 31.41 49.18">
  <defs>
    <style>
      .cls-1 {
        fill: #ed98a4;
      }

      .cls-2 {
        fill: #eeb967;
      }

      .cls-3 {
        fill: #ca5fd2;
      }

      .cls-4 {
        fill: #53aef0;
      }
    </style>
  </defs>
  <path class="cls-3" d="M18.23,33.63c3.46,.04,6.92,.08,10.38,.12,2.64,.03,3.05,.45,2.69,3.08-.25,1.85-.63,3.68-.99,5.51-.31,1.59-1.28,2.34-2.91,2.33-8.38-.02-16.75-.03-25.13,.01-1.7,0-2.47-.64-2.21-2.33,.36-2.39,.75-4.78,1.19-7.16,.16-.88,.74-1.47,1.69-1.57,5.1,.32,10.2,.17,15.3,0Z"/>
  <path class="cls-2" d="M18.23,33.63c-5.1,.17-10.2,.31-15.3,0-1.1-.69-1.28-1.73-1.07-2.9,.38-2.11,.81-4.22,1.16-6.34,.22-1.31,.92-1.96,2.23-1.96,3.11,.03,6.21,.06,9.32,.09,.7,.64,1.13,1.4,.93,2.38-.57,2.82-.82,5.72-1.86,8.72h4.59Z"/>
  <path class="cls-1" d="M14.56,22.52c-3.11-.03-6.21-.06-9.32-.09-1.21-.64-1.53-1.61-1.25-2.94,.42-2.02,.76-4.06,1.06-6.1,.17-1.15,.73-1.9,1.86-2.2,3.19,.05,6.37,.1,9.56,.14,.94,.56,1.26,1.38,1.07,2.45-.39,2.17-.79,4.34-1.13,6.52-.18,1.15-.74,1.89-1.86,2.21Z"/>
  <path class="cls-4" d="M16.48,11.34c-3.19-.05-6.37-.1-9.56-.14-.9-.89-1.21-1.92-.93-3.2,.38-1.76,.61-3.55,.96-5.31C7.29,.91,8.22-.1,10.23,0c2.27,.12,4.56,0,6.84,.04,2.17,.03,2.76,.71,2.43,2.81-.32,2.05-.74,4.09-1.05,6.14-.18,1.23-.72,2.07-1.97,2.35Z"/>
</svg>