<?xml version="1.0" standalone="no"?>
<!DOCTYPE svg PUBLIC "-//W3C//DTD SVG 20010904//EN"
 "http://www.w3.org/TR/2001/REC-SVG-20010904/DTD/svg10.dtd">
<svg version="1.0" xmlns="http://www.w3.org/2000/svg"
 width="1568.000000pt" height="1568.000000pt" viewBox="0 0 1568.000000 1568.000000"
 preserveAspectRatio="xMidYMid meet">
<metadata>
Created by potrace 1.14, written by Peter Selinger 2001-2017
</metadata>
<g transform="translate(0.000000,1568.000000) scale(0.100000,-0.100000)"
fill="#000000" stroke="none">
<path d="M5815 15670 c-22 -5 -51 -11 -65 -13 -208 -39 -388 -156 -509 -330
-60 -85 -134 -248 -156 -343 -35 -150 -42 -184 -39 -184 3 0 1 -8 -5 -17 -5
-10 -11 -36 -14 -58 -3 -22 -10 -60 -15 -85 -6 -25 -10 -52 -10 -60 0 -8 -10
-62 -21 -119 -12 -58 -20 -110 -17 -117 2 -6 1 -15 -4 -20 -5 -5 -11 -34 -15
-64 -4 -30 -8 -57 -10 -60 -2 -3 -6 -29 -10 -59 -7 -52 -9 -68 -20 -121 -7
-38 -17 -91 -21 -125 -11 -71 -12 -80 -14 -80 -1 0 -3 -11 -5 -25 -2 -14 -7
-45 -11 -70 -4 -25 -8 -53 -8 -62 0 -10 -3 -18 -6 -18 -3 0 -7 -10 -7 -22 -2
-30 -10 -83 -13 -83 -1 0 -4 -11 -5 -25 -1 -14 -5 -38 -9 -55 -3 -16 -9 -46
-12 -65 -7 -40 -8 -43 -17 -85 -4 -16 -9 -41 -12 -55 -2 -14 -11 -58 -19 -98
-9 -40 -19 -92 -23 -115 -10 -56 -9 -311 1 -365 19 -103 89 -284 124 -320 6
-7 12 -20 12 -28 0 -8 4 -14 8 -14 4 0 15 -13 25 -29 17 -28 41 -58 104 -129
32 -35 31 -51 -5 -52 -7 0 -38 -11 -68 -25 -30 -14 -56 -25 -59 -25 -2 0 -31
-16 -64 -35 -95 -56 -196 -160 -251 -260 -25 -44 -81 -185 -74 -185 3 0 0 -8
-5 -18 -9 -17 -21 -76 -27 -132 -1 -14 -3 -25 -4 -25 -2 0 -5 -16 -15 -80 -6
-37 -9 -64 -19 -140 -2 -16 -5 -30 -6 -30 -1 0 -3 -13 -5 -30 -2 -16 -7 -50
-11 -75 -4 -25 -7 -55 -7 -67 -1 -13 -4 -23 -7 -23 -3 0 -6 -12 -6 -27 0 -16
-5 -57 -12 -93 -6 -36 -14 -83 -17 -105 -4 -22 -8 -51 -11 -65 -3 -14 -7 -38
-9 -55 -5 -32 -12 -74 -19 -115 -3 -14 -14 -77 -25 -140 -25 -145 -30 -170
-35 -196 -2 -12 -7 -37 -10 -55 -3 -19 -8 -45 -11 -59 -3 -14 -7 -38 -10 -55
-3 -16 -8 -41 -10 -55 -3 -14 -7 -36 -10 -50 -3 -14 -11 -59 -20 -100 -26
-132 -28 -145 -29 -167 -1 -13 -4 -23 -7 -23 -3 0 -6 -6 -6 -12 0 -7 -3 -24
-6 -38 -9 -45 -35 -185 -36 -200 -10 -86 1 -318 15 -341 3 -5 8 -21 10 -36 3
-15 24 -63 47 -107 61 -117 183 -236 312 -305 l40 -21 -35 -1 c-81 -2 -177
-18 -237 -39 -28 -10 -54 -15 -57 -12 -3 3 -6 0 -6 -6 0 -7 -6 -12 -13 -12
-19 0 -122 -68 -150 -98 -7 -7 -21 -23 -33 -35 -29 -30 -84 -113 -84 -126 0
-6 -5 -11 -12 -11 -6 0 -8 -3 -5 -7 4 -3 3 -11 -1 -17 -20 -26 -66 -179 -78
-261 -5 -27 -9 -52 -9 -55 -1 -3 -5 -27 -10 -55 -4 -27 -9 -59 -11 -70 -3 -11
-7 -35 -10 -54 -3 -18 -8 -43 -10 -55 -12 -65 -26 -145 -30 -173 -2 -18 -11
-65 -20 -105 -9 -40 -17 -89 -19 -109 -1 -20 -5 -41 -8 -45 -3 -5 -8 -30 -12
-54 -3 -25 -8 -52 -11 -61 -5 -19 -14 -70 -19 -114 -2 -16 -4 -30 -5 -30 -2 0
-4 -9 -6 -20 -1 -11 -6 -33 -10 -50 -3 -16 -8 -41 -9 -55 -2 -14 -4 -25 -5
-25 -3 0 -10 -37 -14 -75 -2 -19 -5 -35 -6 -35 -2 0 -8 -31 -14 -70 -3 -16 -8
-41 -11 -55 -3 -14 -8 -41 -11 -60 -2 -19 -8 -48 -11 -65 -11 -52 -13 -59 -18
-90 -2 -16 -7 -41 -10 -55 -4 -14 -8 -38 -10 -55 -4 -30 -9 -59 -20 -105 -3
-14 -6 -37 -7 -52 -1 -16 -4 -28 -8 -28 -3 0 -7 -12 -7 -27 -1 -16 -4 -39 -7
-53 -11 -49 -16 -76 -21 -125 -12 -111 -16 -139 -20 -145 -2 -3 0 -12 5 -20 4
-7 4 -24 -1 -37 -5 -13 -5 -23 1 -23 5 0 5 -12 0 -30 -5 -16 -5 -30 -1 -30 5
0 11 -26 15 -57 6 -58 13 -98 16 -98 1 0 3 -7 5 -15 30 -119 167 -309 266
-367 16 -9 29 -21 29 -25 0 -4 8 -8 18 -9 9 0 -21 -11 -68 -23 -160 -43 -251
-101 -343 -221 -42 -56 -87 -158 -101 -231 -7 -33 -35 -188 -41 -219 -2 -16
-7 -41 -10 -55 -5 -28 -34 -193 -40 -230 -2 -14 -6 -35 -9 -46 -2 -12 -7 -39
-10 -60 -4 -22 -9 -47 -12 -57 -3 -9 -7 -36 -9 -60 -1 -23 -5 -49 -9 -57 -3
-8 -8 -33 -11 -55 -3 -22 -7 -49 -9 -60 -2 -11 -7 -37 -10 -57 -3 -21 -9 -55
-13 -75 -3 -21 -6 -46 -7 -55 0 -10 -3 -18 -6 -18 -3 0 -6 -12 -7 -27 -2 -35
-10 -91 -18 -123 -3 -14 -8 -43 -9 -65 -2 -22 -6 -51 -9 -65 -4 -14 -9 -43
-12 -65 -3 -22 -8 -57 -11 -78 -7 -47 -12 -72 -14 -72 -1 0 -3 -14 -5 -30 -2
-17 -6 -46 -9 -65 -3 -19 -9 -53 -11 -75 -3 -22 -9 -51 -12 -65 -3 -14 -7 -36
-8 -50 -1 -14 -7 -56 -14 -95 -6 -38 -13 -80 -14 -92 -1 -13 -5 -23 -10 -23
-4 0 -5 -5 -2 -10 4 -6 -1 -56 -10 -113 -27 -168 -29 -188 -29 -287 1 -150 17
-215 85 -329 26 -45 116 -123 146 -127 9 -2 19 -7 22 -12 15 -22 165 -64 276
-78 71 -8 1445 -10 1471 -2 12 4 24 4 28 1 7 -8 226 -9 226 -2 0 4 18 3 40 -1
22 -4 40 -5 40 -1 0 3 14 6 30 6 17 0 30 -2 30 -5 0 -7 111 -2 118 5 3 2 11 0
19 -6 7 -6 13 -8 13 -3 0 11 131 10 148 0 7 -4 12 -4 12 1 0 4 16 8 35 8 19 0
35 -4 35 -8 0 -5 5 -5 12 -1 17 11 78 11 78 1 0 -4 5 -5 12 -1 15 9 71 9 86 0
7 -4 12 -3 12 1 0 10 61 10 78 -1 7 -4 12 -4 12 1 0 4 23 8 50 8 28 0 50 -4
50 -9 0 -5 6 -4 13 0 15 11 67 11 85 1 6 -5 12 -5 12 0 0 4 18 8 40 8 22 0 40
-4 40 -8 0 -5 5 -5 12 -1 17 11 98 12 104 2 3 -5 11 -5 17 0 7 5 39 7 72 5 33
-1 65 -3 70 -3 6 -1 27 1 48 3 20 2 37 0 37 -6 0 -5 6 -5 13 2 10 8 17 7 25
-1 7 -7 12 -8 12 -2 0 6 19 9 43 7 23 -2 47 -3 52 -3 6 0 29 1 53 3 23 2 42
-1 42 -5 0 -5 8 -5 18 0 20 10 142 9 159 -1 6 -4 14 -4 17 1 2 4 31 7 63 5 67
-3 60 -3 138 0 33 1 63 -2 67 -8 5 -6 8 -7 8 0 0 6 33 9 82 8 98 -3 81 -3 193
0 50 2 95 -1 102 -5 6 -5 14 -5 18 2 4 7 12 7 25 0 10 -6 21 -6 24 -2 6 10 86
9 102 0 6 -4 14 -4 18 0 12 11 76 9 76 -3 0 -7 3 -7 8 0 9 12 152 14 152 2 0
-4 6 -5 12 0 17 10 129 10 135 0 2 -4 10 -4 16 0 18 12 151 10 159 -2 5 -7 8
-6 8 1 0 6 19 9 48 7 60 -4 59 -4 110 0 23 2 42 -1 42 -6 0 -4 5 -5 12 -1 17
10 58 11 64 2 3 -5 11 -5 17 -1 19 12 77 11 77 -1 0 -7 3 -8 8 -1 8 12 122 14
122 2 0 -5 6 -5 12 0 19 11 82 10 90 -2 5 -7 8 -6 8 1 0 6 17 9 43 7 60 -5 58
-5 100 0 20 3 40 1 43 -5 3 -5 11 -5 17 0 7 5 48 7 92 5 44 -1 85 -3 90 -3 6
0 21 1 35 3 14 2 31 -1 38 -6 7 -6 12 -6 12 0 0 8 27 9 108 0 18 -2 35 0 37 4
3 3 17 4 32 2 16 -2 35 -4 43 -3 8 0 40 1 70 3 30 1 63 -1 73 -6 9 -4 17 -4
17 0 0 10 47 10 56 0 3 -3 17 -2 31 4 16 6 22 6 18 -1 -4 -6 2 -7 17 -1 15 5
31 5 41 0 9 -6 17 -6 17 -2 0 9 74 8 89 -2 6 -3 11 -2 11 4 0 6 11 7 28 2 15
-4 39 -4 55 0 15 4 27 3 27 -2 0 -5 11 -4 25 1 15 6 26 6 30 0 4 -6 13 -7 24
-1 10 6 23 6 31 1 8 -5 18 -6 24 -3 12 8 74 8 82 0 3 -3 16 -2 29 3 13 5 26 6
29 3 9 -9 126 -9 126 0 0 5 5 5 10 2 9 -6 112 -9 135 -5 6 1 15 1 20 0 6 -1
42 -1 80 -1 39 1 77 2 85 1 347 -2 698 0 740 4 82 9 117 14 137 20 10 3 29 7
43 10 72 12 222 80 264 118 11 10 23 18 28 18 12 0 101 91 146 151 52 69 115
201 142 301 20 73 24 90 35 148 3 14 7 36 10 50 3 14 8 39 11 55 3 17 7 35 8
40 3 10 11 55 21 108 12 68 20 106 32 157 2 8 5 24 7 35 8 50 19 112 23 130 2
11 7 33 9 49 3 16 10 40 15 53 6 17 6 22 -2 17 -8 -4 -8 -1 -1 12 5 11 12 35
16 54 3 19 8 46 11 60 3 13 7 42 11 64 3 22 7 43 9 46 3 6 11 50 21 125 1 11
3 20 4 20 2 0 10 37 14 70 2 17 7 44 10 60 8 46 26 157 31 190 3 17 7 46 11
65 7 43 9 60 19 129 3 30 8 63 11 74 2 10 6 45 10 76 3 31 8 65 10 76 18 98
26 435 12 505 -29 138 -95 236 -193 285 -22 11 -43 24 -46 28 -3 5 -8 8 -10 6
-2 -1 -40 7 -84 19 -162 44 -245 48 -1035 57 -289 3 -667 8 -840 10 -724 9
-1531 18 -1762 19 -137 0 -248 3 -248 6 0 8 -78 2 -92 -6 -6 -4 -9 -3 -5 2 6
10 -67 9 -83 -1 -6 -3 -10 -3 -10 2 0 8 -108 7 -142 -1 -10 -2 -18 -1 -18 2 0
4 -62 6 -137 4 -76 -1 -145 -2 -153 -2 -109 2 -150 1 -159 -5 -6 -3 -11 -3
-11 2 0 10 -552 9 -568 -1 -7 -4 -12 -3 -12 2 0 5 -11 7 -24 5 l-24 -5 26 83
c14 46 29 86 34 87 4 2 6 7 3 12 -3 5 0 21 6 37 10 27 13 38 23 83 3 11 7 23
10 28 2 4 16 52 31 107 15 55 31 114 35 130 26 94 70 275 84 345 3 14 19 93
36 175 17 83 33 161 36 175 2 14 7 41 11 60 4 19 8 42 9 50 1 8 5 26 9 40 6
27 17 103 18 133 1 9 4 17 7 17 3 0 6 8 6 18 1 23 13 101 20 132 3 14 7 41 9
60 2 19 4 36 5 38 2 1 4 11 5 22 1 11 4 21 5 23 1 1 3 13 5 27 1 14 5 39 9 55
3 17 9 50 12 75 11 76 12 85 14 85 2 0 9 35 16 90 3 28 8 54 11 58 3 5 7 27 9
50 2 23 6 53 9 67 3 14 8 39 10 55 5 34 12 66 21 110 4 17 8 41 10 55 1 14 3
25 4 25 1 0 3 9 4 20 3 20 20 107 31 155 13 61 16 200 5 260 -6 36 -12 71 -12
78 -1 6 -4 12 -8 12 -4 0 -7 6 -8 13 -1 20 -26 81 -45 110 -9 14 -17 29 -17
33 0 18 -89 131 -164 208 l-49 50 49 17 c89 31 223 102 249 133 6 6 24 22 40
35 36 27 146 171 139 182 -2 4 0 10 6 14 14 9 55 106 64 155 1 3 4 10 8 15 8
13 40 182 40 213 0 12 3 22 7 22 3 0 7 15 8 33 1 32 11 112 13 112 3 0 9 41
14 85 3 25 5 45 6 45 1 0 4 14 6 30 8 46 12 70 14 70 1 0 3 9 4 20 4 27 17
113 21 135 2 9 6 35 9 56 7 41 16 96 23 129 2 11 6 35 9 54 3 18 8 43 10 55 2
11 7 37 10 56 2 19 7 46 10 60 2 14 7 39 10 55 2 17 12 68 20 115 9 47 18 94
20 105 9 57 35 203 53 300 11 60 18 111 16 113 -2 3 0 13 5 23 6 10 12 35 15
56 3 21 7 49 10 63 2 13 7 40 10 60 7 45 13 77 19 98 15 53 36 269 27 286 -2
5 -6 33 -7 63 -2 30 -6 59 -10 64 -3 5 -8 22 -10 37 -7 36 -67 159 -96 196
-43 54 -133 138 -181 169 l-48 31 58 17 c32 9 75 24 96 33 20 9 37 14 37 11 0
-3 6 -1 13 5 6 6 39 28 72 49 161 104 267 266 322 491 9 33 35 183 48 268 3
21 8 49 10 62 3 14 8 45 11 70 2 25 7 52 10 61 2 9 7 32 9 50 2 19 9 59 15 89
6 30 13 71 16 90 2 19 9 58 14 85 17 88 21 109 25 140 3 17 7 41 10 55 6 30
15 83 20 119 2 14 4 26 5 26 2 0 6 21 14 70 16 96 18 111 20 120 4 15 19 107
22 130 1 11 3 20 4 20 2 0 5 19 20 108 7 40 15 81 17 92 3 11 6 32 6 48 1 15
4 27 7 27 3 0 6 12 5 28 -1 15 2 38 6 52 7 23 12 48 25 140 8 55 11 75 13 75
1 0 4 18 6 40 3 21 7 53 9 70 14 85 18 136 20 215 2 48 6 92 10 98 4 7 3 12
-2 12 -5 0 -9 15 -10 34 -1 18 -4 49 -8 67 -3 19 -7 39 -8 46 -1 7 -5 15 -8
19 -4 3 -4 12 -1 20 3 8 0 14 -6 14 -6 0 -11 11 -11 25 0 14 -3 25 -8 25 -4 0
-13 12 -20 28 -18 39 -91 114 -134 137 -21 11 -38 23 -38 27 0 5 -3 7 -7 6 -8
-1 -30 6 -68 22 -20 9 -95 31 -125 36 -15 3 -69 11 -150 22 -25 3 -488 6
-1030 7 -542 1 -1122 4 -1290 8 -168 3 -323 2 -345 -3z"/>
</g>
</svg>
